<svg xmlns="http://www.w3.org/2000/svg" viewBox="0 0 578.66669 578.66669" height="578.667" width="578.667"><defs><clipPath id="a"><path d="M0 434h434V0H0z"/></clipPath></defs><g clip-path="url(#a)" transform="matrix(1.33333 0 0 -1.33333 0 578.667)"><path d="M84.868 188.35v57.3h16.95c14.332 0 25.95-12.827 25.95-28.65 0-15.823-11.618-28.65-25.95-28.65zm16.95-18.9c22.128 0 40.725 15.115 46.03 35.584L201.652 163l53.768 42.008V169.45h61.35v18.9h-39.75v76.2h-21.6v-35.558l-51.575-40.294-11.534 9.01L217 217l26.884 21.004-15.35 11.992-51.575-40.294-11.535 9.01L217 259.01 201.65 271l-53.8-42.034c-5.307 20.47-23.904 35.584-46.032 35.584h-38.55v-95.1zm283.65 18.9v-18.9h-61.35v95.1h21.6v-76.2zM217 22.6C109.636 22.6 22.6 109.636 22.6 217S109.636 411.4 217 411.4 411.4 324.364 411.4 217 324.364 22.6 217 22.6m0 410.4C97.706 433 1 336.294 1 217 1 97.707 97.706 1 217 1c119.293 0 216 96.707 216 216 0 119.294-96.707 216-216 216" fill="#fff"/></g></svg>